<svg width="148" height="27" viewBox="0 0 148 27" fill="none" xmlns="http://www.w3.org/2000/svg">
<path fill-rule="evenodd" clip-rule="evenodd" d="M19.9999 18.4138C26.5091 18.4138 31.7241 13.2062 31.7241 6.8582L39.9999 6.8582C39.9999 17.8326 31.0115 26.6677 19.9999 26.6677C8.98839 26.6677 -6.18075e-05 17.8326 -6.2767e-05 6.8582L8.2758 6.8582C8.2758 13.2063 13.4907 18.4138 19.9999 18.4138Z" fill="#8759F2"/>
<ellipse cx="10.4762" cy="13.7146" rx="5.33333" ry="5.14286" transform="rotate(-90 10.4762 13.7146)" fill="#FF3E80"/>
<circle cx="20" cy="5.14285" r="5.14286" transform="rotate(-90 20 5.14285)" fill="#FFC300"/>
<path d="M60.448 19.9317C63.792 19.9317 65.64 18.1497 66.696 16.3237L64.012 15.0257C63.396 16.2357 62.076 17.1597 60.448 17.1597C57.896 17.1597 55.96 15.1137 55.96 12.3417C55.96 9.56972 57.896 7.52372 60.448 7.52372C62.076 7.52372 63.396 8.46972 64.012 9.65772L66.696 8.33772C65.662 6.51172 63.792 4.75172 60.448 4.75172C56.158 4.75172 52.748 7.83172 52.748 12.3417C52.748 16.8517 56.158 19.9317 60.448 19.9317ZM73.4175 19.9317C76.9375 19.9317 79.0495 17.3797 79.0495 14.3437C79.0495 11.3297 76.9375 8.77772 73.4175 8.77772C69.9195 8.77772 67.8075 11.3297 67.8075 14.3437C67.8075 17.3797 69.9195 19.9317 73.4175 19.9317ZM73.4175 17.4457C71.6795 17.4457 70.7115 16.0157 70.7115 14.3437C70.7115 12.6937 71.6795 11.2637 73.4175 11.2637C75.1555 11.2637 76.1455 12.6937 76.1455 14.3437C76.1455 16.0157 75.1555 17.4457 73.4175 17.4457ZM97.1163 19.6677V11.9897C97.1163 9.81172 95.9503 8.77772 93.9923 8.77772C92.3643 8.77772 90.9563 9.74572 90.3403 10.7137C89.9443 9.50372 88.9543 8.77772 87.3923 8.77772C85.7643 8.77772 84.3563 9.78972 83.9163 10.4277V9.04172H81.1223V19.6677H83.9163V12.5177C84.3343 11.9237 85.1483 11.2637 86.1163 11.2637C87.2603 11.2637 87.7003 11.9677 87.7003 12.9577V19.6677H90.5163V12.4957C90.9123 11.9237 91.7263 11.2637 92.7163 11.2637C93.8603 11.2637 94.3003 11.9677 94.3003 12.9577V19.6677H97.1163ZM102.651 18.3037C103.509 19.4037 104.675 19.9317 105.929 19.9317C108.657 19.9317 110.637 17.8857 110.637 14.3437C110.637 10.8017 108.657 8.77772 105.929 8.77772C104.631 8.77772 103.465 9.34972 102.651 10.3837V9.04172H99.8567V23.7157H102.651V18.3037ZM107.733 14.3437C107.733 16.1917 106.655 17.4457 105.049 17.4457C104.147 17.4457 103.113 16.8957 102.651 16.2357V12.4737C103.113 11.7917 104.147 11.2637 105.049 11.2637C106.655 11.2637 107.733 12.5177 107.733 14.3437ZM121.9 19.6677V12.8037C121.9 9.74572 119.678 8.77772 117.258 8.77772C115.586 8.77772 113.914 9.30572 112.616 10.4497L113.672 12.3197C114.574 11.4837 115.63 11.0657 116.774 11.0657C118.182 11.0657 119.106 11.7697 119.106 12.8477V14.3217C118.402 13.4637 117.148 13.0237 115.74 13.0237C114.046 13.0237 112.044 13.9257 112.044 16.4117C112.044 18.7877 114.046 19.9317 115.74 19.9317C117.126 19.9317 118.38 19.4257 119.106 18.5677V19.6677H121.9ZM119.106 17.1157C118.644 17.7317 117.764 18.0397 116.862 18.0397C115.762 18.0397 114.86 17.4677 114.86 16.4777C114.86 15.4657 115.762 14.8717 116.862 14.8717C117.764 14.8717 118.644 15.1797 119.106 15.7957V17.1157ZM134.637 19.6677V12.1657C134.637 10.0977 133.515 8.77772 131.183 8.77772C129.445 8.77772 128.147 9.61372 127.465 10.4277V9.04172H124.671V19.6677H127.465V12.5177C127.927 11.8797 128.785 11.2637 129.885 11.2637C131.073 11.2637 131.843 11.7697 131.843 13.2437V19.6677H134.637ZM137.037 23.8257C137.389 23.9137 138.093 23.9797 138.423 23.9797C140.249 23.9357 141.657 23.4077 142.449 21.4057L147.443 9.04172H144.429L141.657 16.4337L138.885 9.04172H135.893L140.205 19.8217L139.809 20.7237C139.545 21.2957 139.061 21.4937 138.335 21.4937C138.071 21.4937 137.697 21.4277 137.455 21.3177L137.037 23.8257Z" fill="#252525"/>
</svg>
